<svg height="113.941" viewBox="0 0 537 113.941" width="537" xmlns="http://www.w3.org/2000/svg"><g fill="#171d2f"><path d="m28.635-32.292-11.04 14.421v.552l11.04 14.419 2.553-1.656-9.453-13.11 9.453-12.972zm-14.076 0-11.04 14.421v.552l11.04 14.419 2.553-1.656-9.453-13.108 9.453-12.972zm469.752 29.392 11.04-14.421v-.552l-11.04-14.421-2.553 1.656 9.453 13.11-9.453 12.974zm-14.076 0 11.04-14.421v-.552l-11.04-14.421-2.553 1.656 9.453 13.11-9.453 12.974z" transform="translate(15.68 50.372)"/><path d="m65.624 28.827a2.584 2.584 0 0 0 .632-.836 2.542 2.542 0 0 0 -1-.312l-19.82-2.879a2.1 2.1 0 0 1 -1.591-1.164l-8.858-17.952a2.631 2.631 0 0 0 -.608-.86 2.658 2.658 0 0 0 -.6.86l-8.867 17.952a2.1 2.1 0 0 1 -1.591 1.164l-19.816 2.876a2.542 2.542 0 0 0 -1 .312 2.585 2.585 0 0 0 .632.836l14.333 13.976a2.083 2.083 0 0 1 .608 1.872l-3.387 19.737a2.607 2.607 0 0 0 -.016 1.051 2.531 2.531 0 0 0 1-.343l17.712-9.317a2.2 2.2 0 0 1 .991-.244 2.152 2.152 0 0 1 .988.244l17.716 9.314a2.57 2.57 0 0 0 1 .343 2.556 2.556 0 0 0 -.016-1.051l-3.39-19.729a2.133 2.133 0 0 1 .608-1.872z" transform="translate(68.525 -4.824)"/><path d="m65.624 28.827a2.584 2.584 0 0 0 .632-.836 2.542 2.542 0 0 0 -1-.312l-19.82-2.879a2.1 2.1 0 0 1 -1.591-1.164l-8.858-17.952a2.631 2.631 0 0 0 -.608-.86 2.658 2.658 0 0 0 -.6.86l-8.867 17.952a2.1 2.1 0 0 1 -1.591 1.164l-19.816 2.876a2.542 2.542 0 0 0 -1 .312 2.585 2.585 0 0 0 .632.836l14.333 13.976a2.083 2.083 0 0 1 .608 1.872l-3.387 19.737a2.607 2.607 0 0 0 -.016 1.051 2.531 2.531 0 0 0 1-.343l17.712-9.317a2.2 2.2 0 0 1 .991-.244 2.152 2.152 0 0 1 .988.244l17.716 9.314a2.57 2.57 0 0 0 1 .343 2.556 2.556 0 0 0 -.016-1.051l-3.39-19.729a2.133 2.133 0 0 1 .608-1.872z" transform="translate(149.774 -4.824)"/><path d="m65.624 28.827a2.584 2.584 0 0 0 .632-.836 2.542 2.542 0 0 0 -1-.312l-19.82-2.879a2.1 2.1 0 0 1 -1.591-1.164l-8.858-17.952a2.631 2.631 0 0 0 -.608-.86 2.658 2.658 0 0 0 -.6.86l-8.867 17.952a2.1 2.1 0 0 1 -1.591 1.164l-19.816 2.876a2.542 2.542 0 0 0 -1 .312 2.585 2.585 0 0 0 .632.836l14.333 13.976a2.083 2.083 0 0 1 .608 1.872l-3.387 19.737a2.607 2.607 0 0 0 -.016 1.051 2.531 2.531 0 0 0 1-.343l17.712-9.317a2.2 2.2 0 0 1 .991-.244 2.152 2.152 0 0 1 .988.244l17.716 9.314a2.57 2.57 0 0 0 1 .343 2.556 2.556 0 0 0 -.016-1.051l-3.39-19.729a2.133 2.133 0 0 1 .608-1.872z" transform="translate(231.023 -4.824)"/><path d="m65.624 28.827a2.584 2.584 0 0 0 .632-.836 2.542 2.542 0 0 0 -1-.312l-19.82-2.879a2.1 2.1 0 0 1 -1.591-1.164l-8.858-17.952a2.631 2.631 0 0 0 -.608-.86 2.658 2.658 0 0 0 -.6.86l-8.867 17.952a2.1 2.1 0 0 1 -1.591 1.164l-19.816 2.876a2.542 2.542 0 0 0 -1 .312 2.585 2.585 0 0 0 .632.836l14.333 13.976a2.083 2.083 0 0 1 .608 1.872l-3.387 19.737a2.607 2.607 0 0 0 -.016 1.051 2.531 2.531 0 0 0 1-.343l17.712-9.317a2.2 2.2 0 0 1 .991-.244 2.152 2.152 0 0 1 .988.244l17.716 9.314a2.57 2.57 0 0 0 1 .343 2.556 2.556 0 0 0 -.016-1.051l-3.39-19.729a2.133 2.133 0 0 1 .608-1.872z" transform="translate(312.272 -4.824)"/><path d="m65.624 28.827a2.584 2.584 0 0 0 .632-.836 2.542 2.542 0 0 0 -1-.312l-19.82-2.879a2.1 2.1 0 0 1 -1.591-1.164l-8.858-17.952a2.631 2.631 0 0 0 -.608-.86 2.658 2.658 0 0 0 -.6.86l-8.867 17.952a2.1 2.1 0 0 1 -1.591 1.164l-19.816 2.876a2.542 2.542 0 0 0 -1 .312 2.585 2.585 0 0 0 .632.836l14.333 13.976a2.083 2.083 0 0 1 .608 1.872l-3.387 19.737a2.607 2.607 0 0 0 -.016 1.051 2.531 2.531 0 0 0 1-.343l17.712-9.317a2.2 2.2 0 0 1 .991-.244 2.152 2.152 0 0 1 .988.244l17.716 9.314a2.57 2.57 0 0 0 1 .343 2.556 2.556 0 0 0 -.016-1.051l-3.39-19.729a2.133 2.133 0 0 1 .608-1.872z" transform="translate(393.522 -4.824)"/><text font-family="Gotham-Light, Gotham" font-size="34" font-weight="300" letter-spacing=".025em" transform="translate(0 107.942)"><tspan x="0" y="0">AVIS FACEBOOK ET GOOGLE</tspan></text></g></svg>